<svg width="159" height="145" viewBox="0 0 159 145" fill="none" xmlns="http://www.w3.org/2000/svg">
<path d="M92.8216 0.217502C90.8839 0.652682 89.7869 1.27644 88.5616 2.61099C88.1342 3.08969 87.607 3.844 87.379 4.30819L86.9801 5.14954L86.9516 30.7381C86.9374 44.809 86.9089 56.3412 86.8804 56.3557C86.8234 56.4138 67.5749 56.4718 54.9089 56.4428L43.7815 56.4283L43.6818 43.7645C43.4111 10.6038 43.3399 6.06342 43.0977 5.39614C42.656 4.11962 42.1146 3.24926 41.2597 2.3789C40.2624 1.36348 39.0514 0.681694 37.6551 0.348056C35.7174 -0.116137 32.8537 0.377068 31.201 1.45051C30.2321 2.07427 29.0353 3.43783 28.5367 4.45325L28.1377 5.2946L28.1092 31.1733C28.095 45.4037 28.0523 57.0665 28.0238 57.0955C27.9525 57.1681 15.3149 60.4319 6.69518 62.5933C3.36125 63.4347 0.497495 64.189 0.312277 64.2615C-0.157892 64.4646 -0.0866545 65.4945 0.426257 65.8717C0.625723 66.0312 2.86259 67.1192 5.4129 68.3087C7.96321 69.4982 10.8412 70.8472 11.81 71.3114L13.5767 72.1673L11.0977 73.3568C9.72991 74.0095 6.80916 75.3876 4.58654 76.432C2.36392 77.462 0.426257 78.4194 0.269534 78.5644C-0.129397 78.9416 -0.100902 79.8845 0.312277 80.073C0.497495 80.1601 3.36125 80.8999 6.69518 81.7412C15.3149 83.9026 27.9525 87.1665 28.0238 87.239C28.0523 87.268 28.095 98.9309 28.1092 113.161L28.1377 139.04L28.5367 139.881C29.0353 140.897 30.2321 142.26 31.201 142.884C32.8537 143.957 35.7174 144.451 37.6551 143.986C40.2339 143.363 42.1573 141.593 43.0977 138.938C43.3399 138.271 43.4111 133.731 43.6818 100.556L43.7815 87.9063L54.9089 87.8918C67.5749 87.8628 86.8234 87.9208 86.8804 87.9788C86.9089 87.9933 86.9374 99.5256 86.9516 113.596L86.9801 139.185L87.379 140.026C87.8777 141.042 89.0745 142.405 90.0433 143.029C91.696 144.103 94.5598 144.596 96.4975 144.132C99.0763 143.508 101 141.738 101.94 139.083C102.14 138.547 102.182 136.588 102.296 124.389C102.538 99.2355 102.724 83.2209 102.781 83.1628C102.823 83.1048 105.972 87.268 123.24 110.246C145.566 139.954 146.834 141.608 147.76 142.289C148.587 142.899 148.715 142.942 149.726 143C151.18 143.087 152.22 142.841 153.701 142.072C156.608 140.592 158.446 137.908 158.474 135.167C158.489 134.18 158.432 133.963 157.99 133.092C157.705 132.527 151.735 124.476 143.457 113.466C135.735 103.196 124.266 87.9353 117.969 79.5653C111.671 71.1809 105.758 63.3186 104.804 62.0856C103.863 60.8526 103.009 59.6486 102.895 59.431C102.681 58.9958 102.638 56.0076 102.296 20.2358C102.182 7.77513 102.14 5.78781 101.94 5.25108C101.014 2.6255 99.0763 0.826754 96.5687 0.217502C95.4716 -0.0436065 93.9614 -0.0436065 92.8216 0.217502ZM23.664 62.8254C25.7014 63.8698 25.8724 66.4809 24.0059 68.1491C22.339 69.6432 19.7317 69.5417 18.6204 67.946C16.6685 65.1174 20.5153 61.2007 23.664 62.8254ZM22.6952 75.3731C23.4788 75.6487 24.5616 76.5771 24.9178 77.3024C25.5304 78.5209 25.4165 79.8119 24.6186 80.7403C23.7495 81.7412 22.5242 82.1039 21.1707 81.7412C17.9365 80.8854 16.9819 76.9107 19.6462 75.4746C20.4013 75.0685 21.6978 75.025 22.6952 75.3731Z" fill="#CABBE9"/>
</svg>
