<svg width="150" height="136" viewBox="0 0 150 136" fill="none" xmlns="http://www.w3.org/2000/svg">
<g clip-path="url(#clip0_21_3)">
<path d="M87.0202 0.702408C85.2037 1.10741 84.1752 1.6879 83.0265 2.9299C82.6257 3.3754 82.1315 4.07741 81.9178 4.5094L81.5438 5.2924L81.5171 29.1064C81.5037 42.2014 81.477 52.9339 81.4503 52.9474C81.3969 53.0014 63.3515 53.0554 51.477 53.0284L41.0452 53.0149L40.9517 41.2294C40.6979 10.3684 40.6311 6.1429 40.404 5.52191C39.99 4.33391 39.4824 3.52391 38.681 2.7139C37.746 1.76891 36.6106 1.1344 35.3016 0.823898C33.4851 0.391907 30.8003 0.850906 29.2509 1.8499C28.3426 2.4304 27.2206 3.6994 26.7531 4.64441L26.3791 5.4274L26.3524 29.5114C26.339 42.7549 26.299 53.6089 26.2722 53.6359C26.2055 53.7034 14.3577 56.7409 6.2767 58.7524C3.15114 59.5354 0.466367 60.2374 0.292725 60.3049C-0.148058 60.4939 -0.0812729 61.4524 0.399582 61.8034C0.586581 61.9519 2.68364 62.9644 5.07456 64.0714C7.46547 65.1784 10.1636 66.4339 11.0719 66.8659L12.7282 67.6624L10.404 68.7694C9.12175 69.3769 6.38355 70.6594 4.29985 71.6314C2.21614 72.5899 0.399582 73.4809 0.252654 73.6159C-0.121344 73.9669 -0.09463 74.8444 0.292725 75.0199C0.466367 75.1009 3.15114 75.7894 6.2767 76.5724C14.3577 78.5839 26.2055 81.6214 26.2722 81.6889C26.299 81.7159 26.339 92.5699 26.3524 105.813L26.3791 129.897L26.7531 130.68C27.2206 131.625 28.3426 132.894 29.2509 133.475C30.8003 134.474 33.4851 134.933 35.3016 134.501C37.7192 133.92 39.5225 132.273 40.404 129.803C40.6311 129.182 40.6979 124.956 40.9517 94.0819L41.0452 82.3099L51.477 82.2964C63.3515 82.2694 81.3969 82.3234 81.4503 82.3774C81.477 82.3909 81.5037 93.1234 81.5171 106.218L81.5438 130.032L81.9178 130.815C82.3853 131.76 83.5073 133.029 84.4156 133.61C85.965 134.609 88.6498 135.068 90.4663 134.636C92.884 134.055 94.6872 132.408 95.5687 129.938C95.7557 129.438 95.7958 127.616 95.9027 116.262C96.1297 92.8534 96.3034 77.9494 96.3568 77.8954C96.3969 77.8414 99.3488 81.7159 115.538 103.1C136.468 130.748 137.657 132.287 138.525 132.921C139.3 133.488 139.42 133.529 140.368 133.583C141.731 133.664 142.706 133.434 144.095 132.719C146.82 131.342 148.543 128.844 148.57 126.293C148.583 125.375 148.53 125.172 148.115 124.362C147.848 123.836 142.252 116.343 134.491 106.097C127.252 96.5389 116.499 82.3369 110.595 74.5474C104.692 66.7444 99.1484 59.4274 98.2535 58.2799C97.3719 57.1324 96.5705 56.0119 96.4637 55.8094C96.2633 55.4044 96.2232 52.6234 95.9027 19.3324C95.7958 7.73591 95.7557 5.8864 95.5687 5.3869C94.7005 2.94341 92.884 1.26941 90.5331 0.702408C89.5046 0.459396 88.0888 0.459396 87.0202 0.702408ZM22.185 58.9684C24.095 59.9404 24.2553 62.3704 22.5055 63.9229C20.9428 65.3134 18.4984 65.2189 17.4566 63.7339C15.6266 61.1014 19.2331 57.4564 22.185 58.9684ZM21.2767 70.6459C22.0113 70.9024 23.0265 71.7664 23.3604 72.4414C23.9347 73.5754 23.8279 74.7769 23.0799 75.6409C22.2651 76.5724 21.1164 76.9099 19.8475 76.5724C16.8154 75.7759 15.9205 72.0769 18.4183 70.7404C19.1262 70.3624 20.3417 70.3219 21.2767 70.6459Z" fill="white"/>
</g>
<defs>
<clipPath id="clip0_21_3">
<rect width="150" height="135" fill="white" transform="translate(0 0.5)"/>
</clipPath>
</defs>
</svg>
