<svg width="688" height="569" viewBox="0 0 688 569" fill="none" xmlns="http://www.w3.org/2000/svg">
<path fill-rule="evenodd" clip-rule="evenodd" d="M361.192 0.398521C408.057 -5.07377 440.528 47.3654 485.27 62.3433C550.887 84.3096 657.575 44.0675 683.404 108.263C709.842 173.972 592.753 217.547 575.341 286.202C560.897 343.15 618.148 403.9 594.753 457.793C570.423 513.841 513.9 563.212 452.991 568.049C391.845 572.904 350.784 506.617 294.774 481.613C248.758 461.071 197.64 460.382 154.282 434.701C95.806 400.066 -7.5553 374.772 0.437826 307.28C9.52595 230.543 126.403 225.291 185.043 174.967C213.507 150.539 227.795 115.701 254.437 89.2975C288.009 56.0271 314.246 5.88038 361.192 0.398521Z" fill="url(#paint0_linear_26_8)" fill-opacity="0.5"/>
<defs>
<linearGradient id="paint0_linear_26_8" x1="343.636" y1="0" x2="343.636" y2="568.302" gradientUnits="userSpaceOnUse">
<stop stop-color="#FFCEF3"/>
<stop offset="1" stop-color="white"/>
</linearGradient>
</defs>
</svg>
