<svg width="377" height="328" viewBox="0 0 377 328" fill="none" xmlns="http://www.w3.org/2000/svg">
<path fill-rule="evenodd" clip-rule="evenodd" d="M185.075 54.9724C202.236 61.3543 221.297 46.1683 238.938 50.9499C257.37 55.9459 269.624 73.1962 286.445 82.4484C312.543 96.8038 348.685 95.8604 365.808 120.735C381.898 144.109 377.12 177.466 371.088 205.41C365.108 233.114 355.588 264.973 331.654 278.963C306.065 293.92 273.837 277.658 244.455 279.43C226.551 280.51 208.812 281.267 191.899 287.392C166.624 296.544 143.733 338.826 121.005 324.132C96.1975 308.093 133.527 254.989 111.326 235.299C82.8073 210.006 13.4859 254.584 1.24755 217.92C-10.4449 182.891 70.0242 181.21 81.5766 146.175C90.9126 117.861 47.8043 92.2689 52.4174 62.7363C56.677 35.4669 77.527 2.43526 104.274 0.869871C136.713 -1.02864 154.49 43.5982 185.075 54.9724Z" fill="url(#paint0_linear_26_13)" fill-opacity="0.5"/>
<defs>
<linearGradient id="paint0_linear_26_13" x1="182.919" y1="-1.45367" x2="192.515" y2="325.405" gradientUnits="userSpaceOnUse">
<stop stop-color="#CABBE9"/>
<stop offset="0.690625" stop-color="#FFCEF3"/>
</linearGradient>
</defs>
</svg>
